<svg xmlns="http://www.w3.org/2000/svg" version="1.1" xmlns:xlink="http://www.w3.org/1999/xlink" xmlns:svgjs="http://svgjs.dev/svgjs" width="1500" height="200" viewBox="0 0 1500 200"><g transform="matrix(1,0,0,1,-0.9090909090909918,-0.14319867275165166)"><svg viewBox="0 0 396 53" data-background-color="#dedede" preserveAspectRatio="xMidYMid meet" height="200" width="1500" xmlns="http://www.w3.org/2000/svg" xmlns:xlink="http://www.w3.org/1999/xlink"><g id="tight-bounds" transform="matrix(1,0,0,1,0.2400000000000091,0.03794764827918584)"><svg viewBox="0 0 395.52 52.924104703441635" height="52.924104703441635" width="395.52"><g><svg viewBox="0 0 447.85648323489124 59.927193089701" height="52.924104703441635" width="395.52"><g transform="matrix(1,0,0,1,52.336483234891276,8.282267641196015)"><svg viewBox="0 0 395.52 43.36265780730897" height="43.36265780730897" width="395.52"><g id="textblocktransform"><svg viewBox="0 0 395.52 43.36265780730897" height="43.36265780730897" width="395.52" id="textblock"><g><svg viewBox="0 0 395.52 43.36265780730897" height="43.36265780730897" width="395.52"><g transform="matrix(1,0,0,1,0,0)"><svg width="395.52" viewBox="2.8 -35.85 331.07 36.300000000000004" height="43.36265780730897" data-palette-color="#374151"><path d="M24.6 0.3L24.6 0.3Q23.7-1.15 22.1-3.43 20.5-5.7 18.48-8.25 16.45-10.8 14.35-13.1 12.25-15.4 10.45-16.95L10.45-16.95 20.65-27.65Q22.5-29.55 22.53-30.63 22.55-31.7 20.85-31.8L20.85-31.8Q20.7-32.3 20.65-32.85 20.6-33.4 20.6-33.95L20.6-33.95Q21.45-33.9 22.85-33.85 24.25-33.8 25.75-33.8L25.75-33.8Q26.75-33.8 27.68-33.83 28.6-33.85 29.43-33.88 30.25-33.9 30.9-33.95L30.9-33.95Q30.9-33.45 30.85-32.85 30.8-32.25 30.6-31.8L30.6-31.8Q29.5-31.75 28.48-31.38 27.45-31 26.28-30.1 25.1-29.2 23.5-27.45L23.5-27.45 14.75-18.15 14.75-19.35Q16.85-17.5 19.53-14.28 22.2-11.05 25.25-7.1L25.25-7.1Q26.5-5.5 27.45-4.45 28.4-3.4 29.63-2.85 30.85-2.3 32.8-2.15L32.8-2.15Q32.8-1.75 32.75-1.15 32.7-0.55 32.55 0L32.55 0Q31.6 0 30.6 0 29.6 0 28.55 0.05 27.5 0.1 26.5 0.15 25.5 0.2 24.6 0.3ZM2.8 0.15L2.8 0.15Q2.8-0.55 2.85-1.07 2.9-1.6 3.05-2L3.05-2Q4.4-2.1 5.15-2.48 5.9-2.85 6.2-3.78 6.5-4.7 6.5-6.35L6.5-6.35 6.5-27.45Q6.5-29.15 6.2-30.05 5.9-30.95 5.15-31.35 4.4-31.75 3.05-31.8L3.05-31.8Q2.9-32.2 2.85-32.75 2.8-33.3 2.8-33.95L2.8-33.95Q3.75-33.9 4.73-33.88 5.7-33.85 6.75-33.83 7.8-33.8 8.85-33.8L8.85-33.8Q9.95-33.8 10.95-33.83 11.95-33.85 12.93-33.88 13.9-33.9 14.9-33.95L14.9-33.95Q14.9-33.3 14.85-32.75 14.8-32.2 14.65-31.8L14.65-31.8Q13.35-31.75 12.58-31.35 11.8-30.95 11.5-30.05 11.2-29.15 11.2-27.45L11.2-27.45 11.2-6.35Q11.2-4.7 11.5-3.78 11.8-2.85 12.58-2.48 13.35-2.1 14.65-2L14.65-2Q14.8-1.6 14.85-1.07 14.9-0.55 14.9 0.15L14.9 0.15Q13.4 0.05 11.85 0.03 10.3 0 8.85 0L8.85 0Q7.4 0 5.75 0.03 4.1 0.05 2.8 0.15ZM45.15 0.2L45.15 0.2Q41.8 0.2 39.9-1.75 38-3.7 38-8.7L38-8.7 38-16.25Q38-18 37.5-18.88 37-19.75 34.7-19.8L34.7-19.8Q34.7-20.35 34.77-20.78 34.85-21.2 35.05-21.65L35.05-21.65Q36.6-21.75 38.42-22.25 40.25-22.75 41.4-23.35L41.4-23.35Q41.85-23.2 42.17-22.73 42.5-22.25 42.5-21.15L42.5-21.15 42.5-9.8Q42.5-6.45 43.42-4.65 44.35-2.85 46.65-2.85L46.65-2.85Q49.15-2.85 50.82-4.95 52.5-7.05 52.5-11.4L52.5-11.4 52.5-16.5Q52.5-18.25 51.87-19.13 51.25-20 48.75-20.05L48.75-20.05Q48.75-20.6 48.8-21.03 48.85-21.45 49.1-21.9L49.1-21.9Q51.05-22 52.92-22.43 54.8-22.85 55.9-23.35L55.9-23.35Q56.35-23.2 56.67-22.73 57-22.25 57-21.15L57-21.15 57-6.65 53.1-4.8Q52.85-4.15 52.4-3.53 51.95-2.9 51.4-2.35L51.4-2.35Q50.1-1.05 48.65-0.43 47.2 0.2 45.15 0.2ZM54.1 0.45L54.1 0.45Q53.6 0.2 53.22-0.28 52.85-0.75 52.85-2.45L52.85-2.45Q52.85-3 52.92-4 53-5 53.35-6.8L53.35-6.8 57-6.8Q57-5.65 57.2-4.88 57.4-4.1 58.07-3.75 58.75-3.4 60.1-3.4L60.1-3.4Q60.1-2.9 60.05-2.27 60-1.65 59.8-1.1L59.8-1.1Q58.55-1.05 56.9-0.63 55.25-0.2 54.1 0.45ZM72.15-21.15L67.65-10.7 67.65-16.25Q67.65-17.45 67.4-18.2 67.15-18.95 66.34-19.35 65.55-19.75 63.9-19.8L63.9-19.8Q63.9-20.35 64-20.8 64.09-21.25 64.34-21.65L64.34-21.65Q65.9-21.75 67.9-22.25 69.9-22.75 71.05-23.35L71.05-23.35Q71.5-23.2 71.82-22.73 72.15-22.25 72.15-21.15L72.15-21.15ZM86.95-14.95L86.95-6.35Q86.95-3.75 87.67-2.88 88.4-2 89.9-2L89.9-2Q90.05-1.55 90.09-1.05 90.15-0.55 90.15 0.15L90.15 0.15Q89.05 0.05 87.65 0.03 86.25 0 84.7 0L84.7 0Q83.7 0 82.59 0.03 81.5 0.05 80.52 0.08 79.55 0.1 78.75 0.15L78.75 0.15Q78.75-0.55 78.8-1.07 78.84-1.6 79-2L79-2Q80.8-2 81.62-2.93 82.45-3.85 82.45-6.35L82.45-6.35 82.45-13.95Q82.45-17.5 81.15-18.78 79.84-20.05 77.8-20.05L77.8-20.05Q76.5-20.05 75.2-19.23 73.9-18.4 73.02-16.57 72.15-14.75 72.15-11.7L72.15-11.7 72.15-6.35Q72.15-3.85 72.9-2.93 73.65-2 75.59-2L75.59-2Q75.75-1.55 75.8-1.05 75.84-0.55 75.84 0.15L75.84 0.15Q75.15 0.1 74.15 0.08 73.15 0.05 72.05 0.03 70.95 0 69.9 0L69.9 0Q68.9 0 67.8 0.03 66.7 0.05 65.7 0.08 64.7 0.1 63.95 0.15L63.95 0.15Q63.95-0.55 64-1.07 64.05-1.6 64.2-2L64.2-2Q66.15-2 66.9-2.93 67.65-3.85 67.65-6.35L67.65-6.35 67.65-16.25 72.15-21.15Q72.15-20.55 72.09-19.8 72.05-19.05 71.8-18.2L71.8-18.2Q71.95-18.45 72.09-18.78 72.25-19.1 72.55-19.5L72.55-19.5Q73.4-20.65 75.27-21.88 77.15-23.1 79.8-23.1L79.8-23.1Q81.7-23.1 83.32-22.33 84.95-21.55 85.95-19.78 86.95-18 86.95-14.95L86.95-14.95ZM106.39-23.35L106.39-23.35Q107.84-23.35 108.92-23.1 109.99-22.85 111.24-22.45L111.24-22.45 111.24-18.6Q110.24-19.65 109.07-20.35 107.89-21.05 106.14-21.05L106.14-21.05Q105.09-21.05 103.87-20.63 102.64-20.2 101.49-19.15 100.34-18.1 99.62-16.2 98.89-14.3 98.89-11.3L98.89-11.3Q98.89-8.1 99.84-6.23 100.79-4.35 102.09-3.53 103.39-2.7 104.49-2.7L104.49-2.7Q105.99-2.7 107.37-3.63 108.74-4.55 109.64-6.65 110.54-8.75 110.54-12.25L110.54-12.25 111.99-6.95Q111.34-5.35 110.87-4.5 110.39-3.65 110.14-3.25L110.14-3.25Q109.69-2.5 108.72-1.65 107.74-0.8 106.37-0.18 104.99 0.45 103.29 0.45L103.29 0.45Q100.39 0.45 98.29-0.73 96.19-1.9 95.07-4.35 93.94-6.8 93.94-10.65L93.94-10.65Q93.94-14.15 95.49-17.03 97.04-19.9 99.84-21.63 102.64-23.35 106.39-23.35ZM111.59-6.8L115.04-6.8Q115.04-5.65 115.24-4.88 115.44-4.1 116.12-3.75 116.79-3.4 118.14-3.4L118.14-3.4Q118.14-2.9 118.09-2.27 118.04-1.65 117.84-1.1L117.84-1.1Q116.59-1.05 114.94-0.63 113.29-0.2 112.14 0.45L112.14 0.45Q111.64 0.2 111.27-0.28 110.89-0.75 110.89-2.45L110.89-2.45Q110.89-3.45 111.07-4.23 111.24-5 111.59-6.8L111.59-6.8ZM110.54-28.75L115.04-28.75 115.04-6.35 110.54-6.35 110.54-28.75ZM113.94-35.85L113.94-35.85Q114.39-35.7 114.72-35.25 115.04-34.8 115.04-33.85L115.04-33.85 115.04-26.9 110.54-26.9 110.54-28.75Q110.54-29.95 110.32-30.73 110.09-31.5 109.29-31.9 108.49-32.3 106.79-32.3L106.79-32.3Q106.79-32.85 106.89-33.3 106.99-33.75 107.24-34.15L107.24-34.15Q107.99-34.15 109.34-34.4 110.69-34.65 112.02-35.05 113.34-35.45 113.94-35.85ZM132.74 0.45L132.74 0.45Q129.19 0.45 126.84-1.15 124.49-2.75 123.32-5.48 122.14-8.2 122.14-11.45L122.14-11.45Q122.14-14.65 123.39-17.35 124.64-20.05 126.97-21.7 129.29-23.35 132.49-23.35L132.49-23.35Q135.74-23.35 137.72-21.95 139.69-20.55 140.67-18.2 141.64-15.85 141.84-13L141.84-13Q141.64-12 141.09-11.3L141.09-11.3Q140.24-11.3 138.54-11.3 136.84-11.3 134.69-11.28 132.54-11.25 130.29-11.18 128.04-11.1 126.04-11L126.04-11 126.04-13.55 136.64-13.55Q136.64-16.85 135.44-18.9 134.24-20.95 132.04-20.95L132.04-20.95Q130.84-20.95 129.69-20.23 128.54-19.5 127.79-17.68 127.04-15.85 127.04-12.5L127.04-12.5Q127.04-10.05 127.67-7.73 128.29-5.4 129.87-3.88 131.44-2.35 134.34-2.35L134.34-2.35Q135.99-2.35 137.59-3.1 139.19-3.85 140.44-5.25L140.44-5.25Q140.84-5.05 141.22-4.58 141.59-4.1 141.64-3.7L141.64-3.7Q139.94-1.45 137.72-0.5 135.49 0.45 132.74 0.45ZM168.64-14.95L168.64-6.35Q168.64-3.75 169.36-2.88 170.09-2 171.59-2L171.59-2Q171.74-1.55 171.79-1.05 171.84-0.55 171.84 0.15L171.84 0.15Q170.74 0.05 169.34 0.03 167.94 0 166.39 0L166.39 0Q165.39 0 164.29 0.03 163.19 0.05 162.21 0.08 161.24 0.1 160.44 0.15L160.44 0.15Q160.44-0.55 160.49-1.07 160.54-1.6 160.69-2L160.69-2Q162.49-2 163.31-2.93 164.14-3.85 164.14-6.35L164.14-6.35 164.14-13.95Q164.14-17.5 162.84-18.78 161.54-20.05 159.49-20.05L159.49-20.05Q158.19-20.05 156.89-19.23 155.59-18.4 154.71-16.57 153.84-14.75 153.84-11.7L153.84-11.7 153.84-6.35Q153.84-3.85 154.59-2.93 155.34-2 157.29-2L157.29-2Q157.44-1.55 157.49-1.05 157.54-0.55 157.54 0.15L157.54 0.15Q156.84 0.1 155.84 0.08 154.84 0.05 153.74 0.03 152.64 0 151.59 0L151.59 0Q150.59 0 149.49 0.03 148.39 0.05 147.39 0.08 146.39 0.1 145.64 0.15L145.64 0.15Q145.64-0.55 145.69-1.07 145.74-1.6 145.89-2L145.89-2Q147.84-2 148.59-2.93 149.34-3.85 149.34-6.35L149.34-6.35 149.34-16.25 153.84-21.15Q153.84-20.55 153.79-19.8 153.74-19.05 153.49-18.2L153.49-18.2Q153.64-18.45 153.79-18.78 153.94-19.1 154.24-19.5L154.24-19.5Q155.09-20.65 156.96-21.88 158.84-23.1 161.49-23.1L161.49-23.1Q163.39-23.1 165.01-22.33 166.64-21.55 167.64-19.78 168.64-18 168.64-14.95L168.64-14.95ZM149.34-26.9L149.34-28.75Q149.34-29.95 149.11-30.73 148.89-31.5 148.09-31.9 147.29-32.3 145.59-32.3L145.59-32.3Q145.59-32.85 145.69-33.3 145.79-33.75 146.04-34.15L146.04-34.15Q146.79-34.15 148.16-34.4 149.54-34.65 150.84-35.05 152.14-35.45 152.74-35.85L152.74-35.85Q153.19-35.7 153.51-35.25 153.84-34.8 153.84-33.85L153.84-33.85 153.84-26.9 149.34-26.9ZM149.34-15.5L149.34-28.75 153.84-28.75 153.84-21.15 149.34-15.5ZM175.49 0.15L175.49 0.15Q175.49-0.35 175.54-0.93 175.59-1.5 175.74-2L175.74-2Q177.74-2 178.46-2.93 179.19-3.85 179.19-6.35L179.19-6.35 179.19-16.25Q179.19-17.45 178.96-18.23 178.74-19 177.94-19.4 177.14-19.8 175.44-19.8L175.44-19.8Q175.44-20.35 175.54-20.8 175.64-21.25 175.89-21.65L175.89-21.65Q176.64-21.65 178.01-21.9 179.39-22.15 180.69-22.55 181.99-22.95 182.59-23.35L182.59-23.35Q183.04-23.2 183.36-22.75 183.69-22.3 183.69-21.35L183.69-21.35 183.69-6.35Q183.69-3.85 184.36-2.93 185.04-2 186.64-2L186.64-2Q186.79-1.5 186.84-0.85 186.89-0.2 186.89 0.15L186.89 0.15Q186.04 0.1 185.09 0.08 184.14 0.05 183.16 0.03 182.19 0 181.24 0L181.24 0Q180.29 0 179.26 0.03 178.24 0.05 177.29 0.08 176.34 0.1 175.49 0.15ZM181.04-29L181.04-29Q179.79-29 178.94-29.85 178.09-30.7 178.09-31.9L178.09-31.9Q178.09-33.25 178.99-34.1 179.89-34.95 181.04-34.95L181.04-34.95Q182.39-34.95 183.21-34.1 184.04-33.25 184.04-31.9L184.04-31.9Q184.04-30.75 183.16-29.88 182.29-29 181.04-29ZM206.43-21.6L206.43-21.6Q206.38-20.4 206.36-19.05 206.33-17.7 206.53-16.4L206.53-16.4Q206.03-16.1 205.38-15.95 204.73-15.8 204.03-15.8L204.03-15.8Q203.93-17.2 203.21-18.45 202.48-19.7 201.28-20.5 200.08-21.3 198.43-21.3L198.43-21.3Q196.88-21.3 195.96-20.55 195.03-19.8 195.03-18.55L195.03-18.55Q195.03-17.7 195.41-17.05 195.78-16.4 197.06-15.68 198.33-14.95 200.98-13.9L200.98-13.9Q203.68-12.9 205.23-11.9 206.78-10.9 207.43-9.65 208.08-8.4 208.08-6.6L208.08-6.6Q208.08-4.5 206.88-2.9 205.68-1.3 203.61-0.43 201.53 0.45 198.93 0.45L198.93 0.45Q195.93 0.45 194.16-0.03 192.38-0.5 190.68-1.4L190.68-1.4Q190.78-2.2 190.81-3.35 190.83-4.5 190.83-5.65 190.83-6.8 190.73-7.6L190.73-7.6Q191.13-7.9 191.86-8.03 192.58-8.15 193.33-8.15L193.33-8.15Q193.73-5 195.28-3.45 196.83-1.9 199.43-1.9L199.43-1.9Q201.48-1.9 202.61-2.8 203.73-3.7 203.73-5.1L203.73-5.1Q203.73-6 203.31-6.65 202.88-7.3 201.73-7.95 200.58-8.6 198.33-9.5L198.33-9.5Q195.63-10.6 194.01-11.55 192.38-12.5 191.66-13.8 190.93-15.1 190.93-17.1L190.93-17.1Q190.93-18.7 191.73-19.88 192.53-21.05 193.81-21.83 195.08-22.6 196.53-22.98 197.98-23.35 199.23-23.35L199.23-23.35Q201.48-23.35 203.18-22.9 204.88-22.45 206.43-21.6ZM220.48 0.45L220.48 0.45Q217.53 0.45 216.11-1.07 214.68-2.6 214.68-6L214.68-6 214.68-19.55Q213.93-19.8 213.13-19.98 212.33-20.15 211.08-20.2L211.08-20.2Q211.08-20.85 211.18-21.33 211.28-21.8 211.53-22.4L211.53-22.4 214.68-22.4 214.68-29Q215.68-29.25 216.66-29.8 217.63-30.35 218.38-31L218.38-31Q218.88-30.8 219.03-30.4 219.18-30 219.18-28.4L219.18-28.4 219.18-22.4 225.68-22.4Q225.68-21.9 225.58-21.33 225.48-20.75 225.23-20.2L225.23-20.2Q223.43-20.15 221.93-19.98 220.43-19.8 219.18-19.55L219.18-19.55 219.18-7.05Q219.18-5.4 219.53-4.33 219.88-3.25 220.53-2.75 221.18-2.25 222.08-2.25L222.08-2.25Q223.13-2.25 223.91-2.55 224.68-2.85 225.38-3.45L225.38-3.45Q226.03-2.7 226.13-1.8L226.13-1.8Q225.33-0.85 223.71-0.2 222.08 0.45 220.48 0.45ZM240.93 0.45L240.93 0.45Q237.53 0.45 234.98-1.03 232.43-2.5 231.03-5.18 229.63-7.85 229.63-11.45L229.63-11.45Q229.63-14.85 231.08-17.55 232.53-20.25 235.08-21.8 237.63-23.35 240.93-23.35L240.93-23.35Q244.48-23.35 247-21.85 249.53-20.35 250.88-17.68 252.23-15 252.23-11.45L252.23-11.45Q252.23-8.05 250.8-5.35 249.38-2.65 246.85-1.1 244.33 0.45 240.93 0.45ZM241.33-1.95L241.33-1.95Q244.33-1.95 245.78-4.42 247.23-6.9 247.23-10.85L247.23-10.85Q247.23-13.95 246.3-16.23 245.38-18.5 243.83-19.73 242.28-20.95 240.43-20.95L240.43-20.95Q237.53-20.95 236.1-18.6 234.68-16.25 234.68-12.5L234.68-12.5Q234.68-9.15 235.5-6.78 236.33-4.4 237.83-3.18 239.33-1.95 241.33-1.95ZM264.28-11.35L264.28-7.35Q264.28-5.2 264.73-4.08 265.18-2.95 266.18-2.53 267.18-2.1 268.73-2L268.73-2Q268.88-1.6 268.93-1.07 268.98-0.55 268.98 0.15L268.98 0.15Q268.23 0.1 267.2 0.08 266.18 0.05 265.03 0.03 263.88 0 262.68 0L262.68 0Q260.93 0 259 0.03 257.08 0.05 256.08 0.15L256.08 0.15Q256.08-0.55 256.13-1.07 256.18-1.6 256.33-2L256.33-2Q257.68-2.1 258.43-2.48 259.18-2.85 259.48-3.78 259.78-4.7 259.78-6.35L259.78-6.35 259.78-11.35 264.28-11.35ZM263.43-15.35L264.28-14.65 264.28-10.7 259.78-10.7 259.78-16.25 264.28-21.15Q264.28-19.45 263.98-18.07 263.68-16.7 263.43-15.35L263.43-15.35ZM264.28-12.15L263.18-15.05Q263.73-16.45 264.03-17.35 264.33-18.25 264.68-18.85L264.68-18.85Q265.78-20.6 267.28-21.75 268.78-22.9 270.73-22.9L270.73-22.9Q272.63-22.9 274.18-21.7L274.18-21.7Q274.08-20.9 273.98-19.85 273.88-18.8 273.85-17.75 273.83-16.7 273.83-15.8L273.83-15.8Q273.38-15.65 272.6-15.5 271.83-15.35 270.98-15.35L270.98-15.35Q270.88-17.75 270.2-18.5 269.53-19.25 268.53-19.25L268.53-19.25Q267.68-19.25 266.68-18.28 265.68-17.3 264.98-15.7 264.28-14.1 264.28-12.15L264.28-12.15ZM264.28-21.15L259.78-10.7 259.78-16.25Q259.78-17.45 259.53-18.2 259.28-18.95 258.48-19.35 257.68-19.75 256.03-19.8L256.03-19.8Q256.03-20.35 256.13-20.8 256.23-21.25 256.48-21.65L256.48-21.65Q258.03-21.75 260.03-22.25 262.03-22.75 263.18-23.35L263.18-23.35Q263.63-23.2 263.95-22.73 264.28-22.25 264.28-21.15L264.28-21.15ZM277.02 0.15L277.02 0.15Q277.02-0.35 277.07-0.93 277.12-1.5 277.27-2L277.27-2Q279.27-2 280-2.93 280.72-3.85 280.72-6.35L280.72-6.35 280.72-16.25Q280.72-17.45 280.5-18.23 280.27-19 279.47-19.4 278.67-19.8 276.97-19.8L276.97-19.8Q276.97-20.35 277.07-20.8 277.17-21.25 277.42-21.65L277.42-21.65Q278.17-21.65 279.55-21.9 280.92-22.15 282.22-22.55 283.52-22.95 284.12-23.35L284.12-23.35Q284.57-23.2 284.9-22.75 285.22-22.3 285.22-21.35L285.22-21.35 285.22-6.35Q285.22-3.85 285.9-2.93 286.57-2 288.17-2L288.17-2Q288.32-1.5 288.37-0.85 288.42-0.2 288.42 0.15L288.42 0.15Q287.57 0.1 286.62 0.08 285.67 0.05 284.7 0.03 283.72 0 282.77 0L282.77 0Q281.82 0 280.8 0.03 279.77 0.05 278.82 0.08 277.87 0.1 277.02 0.15ZM282.57-29L282.57-29Q281.32-29 280.47-29.85 279.62-30.7 279.62-31.9L279.62-31.9Q279.62-33.25 280.52-34.1 281.42-34.95 282.57-34.95L282.57-34.95Q283.92-34.95 284.75-34.1 285.57-33.25 285.57-31.9L285.57-31.9Q285.57-30.75 284.7-29.88 283.82-29 282.57-29ZM302.82 0.45L302.82 0.45Q299.27 0.45 296.92-1.15 294.57-2.75 293.4-5.48 292.22-8.2 292.22-11.45L292.22-11.45Q292.22-14.65 293.47-17.35 294.72-20.05 297.05-21.7 299.37-23.35 302.57-23.35L302.57-23.35Q305.82-23.35 307.8-21.95 309.77-20.55 310.75-18.2 311.72-15.85 311.92-13L311.92-13Q311.72-12 311.17-11.3L311.17-11.3Q310.32-11.3 308.62-11.3 306.92-11.3 304.77-11.28 302.62-11.25 300.37-11.18 298.12-11.1 296.12-11L296.12-11 296.12-13.55 306.72-13.55Q306.72-16.85 305.52-18.9 304.32-20.95 302.12-20.95L302.12-20.95Q300.92-20.95 299.77-20.23 298.62-19.5 297.87-17.68 297.12-15.85 297.12-12.5L297.12-12.5Q297.12-10.05 297.75-7.73 298.37-5.4 299.95-3.88 301.52-2.35 304.42-2.35L304.42-2.35Q306.07-2.35 307.67-3.1 309.27-3.85 310.52-5.25L310.52-5.25Q310.92-5.05 311.3-4.58 311.67-4.1 311.72-3.7L311.72-3.7Q310.02-1.45 307.8-0.5 305.57 0.45 302.82 0.45ZM323.97-11.35L323.97-7.35Q323.97-5.2 324.42-4.08 324.87-2.95 325.87-2.53 326.87-2.1 328.42-2L328.42-2Q328.57-1.6 328.62-1.07 328.67-0.55 328.67 0.15L328.67 0.15Q327.92 0.1 326.89 0.08 325.87 0.05 324.72 0.03 323.57 0 322.37 0L322.37 0Q320.62 0 318.69 0.03 316.77 0.05 315.77 0.15L315.77 0.15Q315.77-0.55 315.82-1.07 315.87-1.6 316.02-2L316.02-2Q317.37-2.1 318.12-2.48 318.87-2.85 319.17-3.78 319.47-4.7 319.47-6.35L319.47-6.35 319.47-11.35 323.97-11.35ZM323.12-15.35L323.97-14.65 323.97-10.7 319.47-10.7 319.47-16.25 323.97-21.15Q323.97-19.45 323.67-18.07 323.37-16.7 323.12-15.35L323.12-15.35ZM323.97-12.15L322.87-15.05Q323.42-16.45 323.72-17.35 324.02-18.25 324.37-18.85L324.37-18.85Q325.47-20.6 326.97-21.75 328.47-22.9 330.42-22.9L330.42-22.9Q332.32-22.9 333.87-21.7L333.87-21.7Q333.77-20.9 333.67-19.85 333.57-18.8 333.54-17.75 333.52-16.7 333.52-15.8L333.52-15.8Q333.07-15.65 332.29-15.5 331.52-15.35 330.67-15.35L330.67-15.35Q330.57-17.75 329.89-18.5 329.22-19.25 328.22-19.25L328.22-19.25Q327.37-19.25 326.37-18.28 325.37-17.3 324.67-15.7 323.97-14.1 323.97-12.15L323.97-12.15ZM323.97-21.15L319.47-10.7 319.47-16.25Q319.47-17.45 319.22-18.2 318.97-18.95 318.17-19.35 317.37-19.75 315.72-19.8L315.72-19.8Q315.72-20.35 315.82-20.8 315.92-21.25 316.17-21.65L316.17-21.65Q317.72-21.75 319.72-22.25 321.72-22.75 322.87-23.35L322.87-23.35Q323.32-23.2 323.64-22.73 323.97-22.25 323.97-21.15L323.97-21.15Z" opacity="1" transform="matrix(1,0,0,1,0,0)" fill="#374151" class="wordmark-text-0" data-fill-palette-color="primary" id="text-0"></path></svg></g></svg></g></svg></g></svg></g><g><svg viewBox="0 0 42.099600430373 59.927193089701" height="59.927193089701" width="42.099600430373"><g><svg xmlns="http://www.w3.org/2000/svg" xmlns:xlink="http://www.w3.org/1999/xlink" version="1.1" x="0" y="0" viewBox="19.404999999999998 8.219 129.15200000000002 183.84300000000002" enable-background="new 0 0 168.292 195" xml:space="preserve" height="59.927193089701" width="42.099600430373" class="icon-icon-0" data-fill-palette-color="accent" id="icon-0"><polygon points="92.668,158.909 92.668,131.469 75.365,131.469 75.365,158.909 56.25,158.909 84.343,192.062 112.435,158.909 " fill="#374151" data-fill-palette-color="accent"></polygon><path d="M58.632 83.055h-0.08c-0.4 1.6-0.8 3.64-1.24 5.199l-1.6 5.719h5.959l-1.68-5.719C59.512 86.654 59.032 84.655 58.632 83.055z" fill="#374151" data-fill-palette-color="accent"></path><path d="M139.449 62.342V47.598c0-0.773-0.324-1.558-0.866-2.109L102.661 9.11c-0.468-0.585-1.415-0.891-2.134-0.891H31.83c-1.657 0-3 1.343-3 3v51.123h-9.425v59.57h9.425v25.232c0 1.658 1.343 3 3 3h38.535v-6H34.83v-22.232h98.619v22.232h-35.78v6h38.78c1.657 0 3-1.342 3-3v-25.232h9.108v-59.57H139.449zM103.527 18.522l25.738 26.076h-25.738V18.522zM64.631 105.451l-2.08-6.919h-7.719l-1.919 6.919h-6.319l8.239-26.956h7.999l8.359 26.956H64.631zM89.591 100.812c1.84 0 3.88-0.4 5.08-0.88l0.919 4.759c-1.119 0.56-3.639 1.16-6.918 1.16-9.319 0-14.118-5.799-14.118-13.478 0-9.199 6.559-14.318 14.718-14.318 3.159 0 5.559 0.64 6.639 1.2l-1.239 4.839c-1.24-0.52-2.96-1-5.119-1-4.84 0-8.599 2.92-8.599 8.919C80.953 97.413 84.152 100.812 89.591 100.812zM114.191 100.812c1.84 0 3.879-0.4 5.079-0.88l0.92 4.759c-1.12 0.56-3.64 1.16-6.919 1.16-9.318 0-14.117-5.799-14.117-13.478 0-9.199 6.559-14.318 14.717-14.318 3.16 0 5.56 0.64 6.64 1.2l-1.24 4.839c-1.24-0.52-2.959-1-5.119-1-4.839 0-8.599 2.92-8.599 8.919C105.552 97.413 108.751 100.812 114.191 100.812zM133.449 62.342H34.83V14.22h62.697v33.378c0 1.657 1.343 3 3 3h32.922V62.342z" fill="#374151" data-fill-palette-color="accent"></path></svg></g></svg></g></svg></g><defs></defs></svg><rect width="395.52" height="52.924104703441635" fill="none" stroke="none" visibility="hidden"></rect></g></svg></g></svg>